<svg xmlns="http://www.w3.org/2000/svg" width="272" height="27" viewBox="0 0 272 27">
 
<path id="Officina" class="part1" fill="#fefefe" d="M15.619,4.724a6.773,6.773,0,0,1,2.363,2.153,9.727,9.727,0,0,1,1.348,3.063,14.219,14.219,0,0,1,0,7A9.717,9.717,0,0,1,17.981,20a6.762,6.762,0,0,1-2.363,2.153,7,7,0,0,1-3.448.8,7,7,0,0,1-3.448-.8A6.754,6.754,0,0,1,6.361,20a9.693,9.693,0,0,1-1.348-3.062,14.219,14.219,0,0,1,0-7A9.7,9.7,0,0,1,6.361,6.876,6.764,6.764,0,0,1,8.724,4.724a7.006,7.006,0,0,1,3.448-.8A7.007,7.007,0,0,1,15.619,4.724ZM7.149,1.4A11.24,11.24,0,0,0,3.386,4.234,12.593,12.593,0,0,0,1.024,8.4,15.32,15.32,0,0,0,.2,13.439a15.423,15.423,0,0,0,.822,5.075,12.588,12.588,0,0,0,2.363,4.165A11.038,11.038,0,0,0,7.149,25.5a11.788,11.788,0,0,0,5.023,1.033A11.791,11.791,0,0,0,17.194,25.5a11.048,11.048,0,0,0,3.762-2.817,12.607,12.607,0,0,0,2.363-4.165,15.436,15.436,0,0,0,.823-5.075,15.333,15.333,0,0,0-.823-5.04,12.612,12.612,0,0,0-2.363-4.165A11.25,11.25,0,0,0,17.194,1.4,11.619,11.619,0,0,0,12.171.349,11.616,11.616,0,0,0,7.149,1.4Zm18.638,9.415h2.975v15.12h3.99V10.814h3.395V7.839H32.751V5.984a1.688,1.688,0,0,1,.578-1.505,2.435,2.435,0,0,1,1.383-.385,8.808,8.808,0,0,1,1.032.053,5.725,5.725,0,0,1,.822.157V1.189a11.446,11.446,0,0,0-2.8-.245,8.885,8.885,0,0,0-1.873.192,3.69,3.69,0,0,0-1.592.77,3.951,3.951,0,0,0-1.12,1.645,7.721,7.721,0,0,0-.42,2.783V7.839H25.786v2.975Zm10.4,0h2.975v15.12h3.99V10.814h3.4V7.839h-3.4V5.984a1.688,1.688,0,0,1,.578-1.505,2.435,2.435,0,0,1,1.383-.385,8.808,8.808,0,0,1,1.032.053,5.725,5.725,0,0,1,.822.157V1.189a11.446,11.446,0,0,0-2.8-.245,8.885,8.885,0,0,0-1.873.192,3.69,3.69,0,0,0-1.593.77,3.951,3.951,0,0,0-1.12,1.645,7.721,7.721,0,0,0-.42,2.783V7.839H36.181v2.975Z"/>
<path class="part1" fill="#fefefe" d="M49.1,4.724h3.99V0.944H49.1v3.78Zm0,21.21h3.99V7.839H49.1v18.1Zm24.535-12.04a6.957,6.957,0,0,0-.84-2.9,6.437,6.437,0,0,0-1.8-2.03,7.89,7.89,0,0,0-2.52-1.207,10.92,10.92,0,0,0-2.993-.4,9.392,9.392,0,0,0-3.9.752,7.862,7.862,0,0,0-2.782,2.065,8.728,8.728,0,0,0-1.68,3.1,12.672,12.672,0,0,0-.56,3.815,11.554,11.554,0,0,0,.578,3.71,8.314,8.314,0,0,0,1.7,2.957,7.967,7.967,0,0,0,2.748,1.96,9.256,9.256,0,0,0,3.762.718,8.17,8.17,0,0,0,5.618-1.872,8.765,8.765,0,0,0,2.677-5.408h-3.99a5.045,5.045,0,0,1-1.418,3.045,4.015,4.015,0,0,1-2.888,1.085,4.228,4.228,0,0,1-2.2-.542,4.543,4.543,0,0,1-1.487-1.418,6.118,6.118,0,0,1-.84-2,9.784,9.784,0,0,1-.262-2.24,9.492,9.492,0,0,1,.49-3.343,5.5,5.5,0,0,1,1.225-2,3.906,3.906,0,0,1,1.61-.98,5.734,5.734,0,0,1,1.645-.263,4.4,4.4,0,0,1,2.782.857,3.744,3.744,0,0,1,1.348,2.537h3.99Zm3.36-9.17h3.99V0.944h-3.99v3.78Zm0,21.21h3.99V7.839h-3.99v18.1Zm8.33,0h3.99V15.259a5.437,5.437,0,0,1,.315-1.855,4.775,4.775,0,0,1,.875-1.523,3.943,3.943,0,0,1,1.365-1.015,4.333,4.333,0,0,1,1.82-.367,3.306,3.306,0,0,1,2.625.963,4.92,4.92,0,0,1,.91,3.1V25.934h3.99V13.509A5.9,5.9,0,0,0,99.5,8.889a6.765,6.765,0,0,0-4.69-1.54,6.344,6.344,0,0,0-3.255.857,6.7,6.7,0,0,0-2.38,2.363L89.1,10.5V7.839h-3.78v18.1Z"/>
<path class="part1" fill="#fefefe" d="M120.566,12.6a4.466,4.466,0,0,0-.63-2.432,5.043,5.043,0,0,0-1.662-1.628,7.478,7.478,0,0,0-2.328-.91,12.393,12.393,0,0,0-2.625-.28,15.337,15.337,0,0,0-2.94.28,7.664,7.664,0,0,0-2.572.98,5.8,5.8,0,0,0-1.873,1.855,6.007,6.007,0,0,0-.84,2.905h3.99a2.731,2.731,0,0,1,1.225-2.17,5.013,5.013,0,0,1,2.765-.7,9.728,9.728,0,0,1,1.26.088,3.944,3.944,0,0,1,1.208.35,2.473,2.473,0,0,1,.91.752,2.045,2.045,0,0,1,.367,1.26,1.785,1.785,0,0,1-.437,1.313,2.655,2.655,0,0,1-1.19.647,9.677,9.677,0,0,1-1.733.3,20.522,20.522,0,0,0-2.065.3q-1.26.14-2.5,0.4a7.269,7.269,0,0,0-2.24.857,4.538,4.538,0,0,0-1.61,1.645,5.368,5.368,0,0,0-.613,2.73,5.058,5.058,0,0,0,.508,2.328,4.688,4.688,0,0,0,1.365,1.645,6.131,6.131,0,0,0,1.977.98,8.2,8.2,0,0,0,2.345.332,11.514,11.514,0,0,0,3.343-.525,7.053,7.053,0,0,0,2.922-1.68,2.437,2.437,0,0,0,1.05,1.715,3.848,3.848,0,0,0,2.03.49c0.163,0,.362-0.012.595-0.035s0.467-.058.7-0.105,0.461-.1.683-0.157,0.4-.111.542-0.158V23.2a2.6,2.6,0,0,1-.56.07h-0.42a0.811,0.811,0,0,1-.752-0.315,2.109,2.109,0,0,1-.193-1.05V12.6Zm-3.99,7.245a2.7,2.7,0,0,1-.455,1.593,3.814,3.814,0,0,1-1.137,1.067,4.775,4.775,0,0,1-1.453.6,6.478,6.478,0,0,1-1.435.175,7.375,7.375,0,0,1-1.172-.1,4.284,4.284,0,0,1-1.19-.367,2.8,2.8,0,0,1-.928-0.718,1.672,1.672,0,0,1-.385-1.12,2.994,2.994,0,0,1,.263-1.312,2.31,2.31,0,0,1,.717-0.875,3.689,3.689,0,0,1,1.05-.525,8.584,8.584,0,0,1,1.225-.3q1.331-.245,2.66-0.368a4.838,4.838,0,0,0,2.24-.717v2.975Z"/>
<path fill="#a9a9a9" class="part2" d="M131.076,25.93h1.54V14.8h8.54a8.527,8.527,0,0,0,5.81-1.785A6.4,6.4,0,0,0,149,7.944a7.716,7.716,0,0,0-.735-3.623,5.834,5.834,0,0,0-1.837-2.135,6.293,6.293,0,0,0-2.38-1,12.488,12.488,0,0,0-2.328-.245h-10.64v24.99Zm1.54-23.66h8.995a6.405,6.405,0,0,1,3.028.612,5.031,5.031,0,0,1,1.767,1.505,5.088,5.088,0,0,1,.84,1.855,7.97,7.97,0,0,1,.21,1.663,6.371,6.371,0,0,1-.315,1.96,5.05,5.05,0,0,1-1.015,1.785,5.13,5.13,0,0,1-1.872,1.313,7.171,7.171,0,0,1-2.853.507h-8.785V2.274Zm17.133,18.305a8.853,8.853,0,0,0,1.592,2.992,7.647,7.647,0,0,0,2.59,2.03,8.679,8.679,0,0,0,7.07,0,7.647,7.647,0,0,0,2.59-2.03,8.873,8.873,0,0,0,1.593-2.992,12.018,12.018,0,0,0,.542-3.64,11.855,11.855,0,0,0-.542-3.623,9.106,9.106,0,0,0-1.593-2.992A7.568,7.568,0,0,0,161,8.276a8.679,8.679,0,0,0-7.07,0,7.568,7.568,0,0,0-2.59,2.048,9.085,9.085,0,0,0-1.592,2.992,11.825,11.825,0,0,0-.543,3.623A11.987,11.987,0,0,0,149.749,20.579Zm1.242-6.738a8.4,8.4,0,0,1,1.33-2.642,6.476,6.476,0,0,1,2.17-1.838,6.825,6.825,0,0,1,5.95,0,6.476,6.476,0,0,1,2.17,1.838,8.4,8.4,0,0,1,1.33,2.643,10.771,10.771,0,0,1,0,6.2,8.4,8.4,0,0,1-1.33,2.642,6.476,6.476,0,0,1-2.17,1.838,6.825,6.825,0,0,1-5.95,0,6.476,6.476,0,0,1-2.17-1.838,8.4,8.4,0,0,1-1.33-2.642A10.771,10.771,0,0,1,150.991,13.841Zm19.18-5.9h-1.33v17.99h1.33V16.1a11.637,11.637,0,0,1,.175-1.75,6.872,6.872,0,0,1,.385-1.33,4.922,4.922,0,0,1,.613-1.085,12.375,12.375,0,0,1,.857-1.015,5.822,5.822,0,0,1,2.573-1.54,6.3,6.3,0,0,1,2.4-.21V7.839a8.368,8.368,0,0,0-2.362.262,7.781,7.781,0,0,0-2.065.857,6.258,6.258,0,0,0-1.575,1.33,4.38,4.38,0,0,0-.893,1.645h-0.105V7.944Zm15.925,0h-3.92v-5.6h-1.33v5.6h-3.325V9.1h3.325V21.664a4.957,4.957,0,0,0,.367,2.415,3.078,3.078,0,0,0,1.173,1.313,3.964,3.964,0,0,0,1.7.525,12.462,12.462,0,0,0,1.978.017V24.779a12.473,12.473,0,0,1-1.663-.035,2.668,2.668,0,0,1-1.225-.4,1.959,1.959,0,0,1-.752-0.963,4.843,4.843,0,0,1-.245-1.715V9.1h3.92V7.944Zm1.663,12.635a8.853,8.853,0,0,0,1.592,2.992,7.647,7.647,0,0,0,2.59,2.03,8.679,8.679,0,0,0,7.07,0,7.647,7.647,0,0,0,2.59-2.03,8.873,8.873,0,0,0,1.593-2.992,12.018,12.018,0,0,0,.542-3.64,11.855,11.855,0,0,0-.542-3.623,9.106,9.106,0,0,0-1.593-2.992,7.568,7.568,0,0,0-2.59-2.048,8.679,8.679,0,0,0-7.07,0,7.568,7.568,0,0,0-2.59,2.048,9.085,9.085,0,0,0-1.592,2.992,11.825,11.825,0,0,0-.543,3.623A11.987,11.987,0,0,0,187.759,20.579ZM189,13.841a8.4,8.4,0,0,1,1.33-2.642,6.476,6.476,0,0,1,2.17-1.838,6.825,6.825,0,0,1,5.95,0,6.476,6.476,0,0,1,2.17,1.838,8.4,8.4,0,0,1,1.33,2.643,10.771,10.771,0,0,1,0,6.2,8.4,8.4,0,0,1-1.33,2.642,6.476,6.476,0,0,1-2.17,1.838,6.825,6.825,0,0,1-5.95,0,6.476,6.476,0,0,1-2.17-1.838A8.4,8.4,0,0,1,189,20.036,10.771,10.771,0,0,1,189,13.841Zm18.165,12.092h1.3V21.909h0.069a5.981,5.981,0,0,0,.526,1.085,6.5,6.5,0,0,0,1.228,1.488,7.463,7.463,0,0,0,2.052,1.313,7.389,7.389,0,0,0,3.036.56,9.676,9.676,0,0,0,2.28-.332,6.381,6.381,0,0,0,2.561-1.365,8.244,8.244,0,0,0,2.1-2.975,12.7,12.7,0,0,0,.877-5.163A12.568,12.568,0,0,0,222.723,13a8.163,8.163,0,0,0-1.457-2.852,6.939,6.939,0,0,0-2.438-1.925,7.9,7.9,0,0,0-3.455-.7,8.96,8.96,0,0,0-2.176.262,7.252,7.252,0,0,0-1.964.8,6.808,6.808,0,0,0-1.614,1.33,5.664,5.664,0,0,0-1.088,1.838h-0.07V0.944h-1.3v24.99Zm5.05-1.47a6.276,6.276,0,0,1-2.123-1.942,8.44,8.44,0,0,1-1.211-2.782,13.493,13.493,0,0,1-.386-3.22,11.014,11.014,0,0,1,.421-3.115,7.144,7.144,0,0,1,1.263-2.485,5.79,5.79,0,0,1,2.141-1.645,7.273,7.273,0,0,1,3.053-.6,5.78,5.78,0,0,1,2.825.665,6.305,6.305,0,0,1,2.035,1.768,7.714,7.714,0,0,1,1.229,2.5,10.439,10.439,0,0,1,.4,2.9,14.048,14.048,0,0,1-.351,3.1,9,9,0,0,1-1.123,2.8,6.218,6.218,0,0,1-2,2.012,5.574,5.574,0,0,1-3.018.77A6.317,6.317,0,0,1,212.216,24.464Zm29.145-7.35q0-.14.018-0.368c0.011-.151.017-0.285,0.017-0.4a11.19,11.19,0,0,0-.507-3.412,8.5,8.5,0,0,0-1.488-2.8,7,7,0,0,0-2.432-1.908,7.617,7.617,0,0,0-3.343-.7,7.707,7.707,0,0,0-3.587.787,7.546,7.546,0,0,0-2.538,2.1,9.093,9.093,0,0,0-1.522,3.045,12.8,12.8,0,0,0-.508,3.623,13.122,13.122,0,0,0,.49,3.657,8.323,8.323,0,0,0,1.488,2.94,7.078,7.078,0,0,0,2.485,1.96,7.933,7.933,0,0,0,3.482.718,7.81,7.81,0,0,0,5.233-1.68,8.05,8.05,0,0,0,2.572-4.83h-1.33a7.417,7.417,0,0,1-2.176,3.938,6.173,6.173,0,0,1-4.281,1.418,6.338,6.338,0,0,1-2.9-.63,5.919,5.919,0,0,1-2.07-1.715,7.7,7.7,0,0,1-1.246-2.52,10.625,10.625,0,0,1-.421-3.01v-0.21h14.56Zm-14.525-1.155a10.9,10.9,0,0,1,.562-2.73,7.165,7.165,0,0,1,1.3-2.328,6.419,6.419,0,0,1,2.07-1.61,6.3,6.3,0,0,1,2.843-.613,5.868,5.868,0,0,1,2.685.6,6.208,6.208,0,0,1,2,1.593,6.886,6.886,0,0,1,1.246,2.31,10.744,10.744,0,0,1,.491,2.783H226.836Z"/>
<path  fill="#a9a9a9" class="part2" d="M244.791,0.944v24.99h1.33V0.944h-1.33Zm5.88,0v24.99H252V0.944h-1.33Zm5.268,19.635a8.853,8.853,0,0,0,1.592,2.992,7.647,7.647,0,0,0,2.59,2.03,8.679,8.679,0,0,0,7.07,0,7.647,7.647,0,0,0,2.59-2.03,8.873,8.873,0,0,0,1.593-2.992,12.018,12.018,0,0,0,.542-3.64,11.855,11.855,0,0,0-.542-3.623,9.106,9.106,0,0,0-1.593-2.992,7.568,7.568,0,0,0-2.59-2.048,8.679,8.679,0,0,0-7.07,0,7.568,7.568,0,0,0-2.59,2.048,9.085,9.085,0,0,0-1.592,2.992,11.825,11.825,0,0,0-.543,3.623A11.987,11.987,0,0,0,255.939,20.579Zm1.242-6.738a8.4,8.4,0,0,1,1.33-2.642,6.476,6.476,0,0,1,2.17-1.838,6.825,6.825,0,0,1,5.95,0A6.476,6.476,0,0,1,268.8,11.2a8.4,8.4,0,0,1,1.33,2.643,10.771,10.771,0,0,1,0,6.2,8.4,8.4,0,0,1-1.33,2.642,6.476,6.476,0,0,1-2.17,1.838,6.825,6.825,0,0,1-5.95,0,6.476,6.476,0,0,1-2.17-1.838,8.4,8.4,0,0,1-1.33-2.642A10.771,10.771,0,0,1,257.181,13.841Z"/>
</svg>
