<svg xmlns="http://www.w3.org/2000/svg" width="18" height="20" viewBox="0 0 18 20">
  <defs>
    <style>
      .cls-1 {
        fill: #4c505b;
        fill-rule: evenodd;
      }
    </style>
  </defs>
  <path id="ico_excluir.svg" class="cls-1" d="M12.451,20h-6.9C3.755,20,2,18.837,2,17V8a8.012,8.012,0,0,1,.358-0.952A0.8,0.8,0,0,1,3.135,6.4H14.869a0.8,0.8,0,0,1,.776.642A7.377,7.377,0,0,1,16,8v9C16,18.837,14.25,20,12.451,20ZM4,8v8a2.268,2.268,0,0,0,2,2h6a2.269,2.269,0,0,0,2-2V8H4ZM17,8H1A1.182,1.182,0,0,1,0,7V4A1.182,1.182,0,0,1,1,3H17a1.182,1.182,0,0,1,1,1V7A1.182,1.182,0,0,1,17,8ZM2,6H16V5H2V6Zm9.468-1.4H6.624A0.517,0.517,0,0,1,6,4V1A1.182,1.182,0,0,1,7,0h4a1.182,1.182,0,0,1,1,1V4C12,4.448,11.906,4.6,11.468,4.6ZM8,3h2V2H8V3ZM6,11H8v3H6V11Zm4,0h2v3H10V11Z"/>
</svg>
