<svg xmlns="http://www.w3.org/2000/svg" xmlns:xlink="http://www.w3.org/1999/xlink" preserveAspectRatio="xMidYMid" width="35" height="35" viewBox="0 0 35 35">
  <defs>
    <style>

      .cls-2 {
        fill: #ffffff;
      }
    </style>
  </defs>
  <path d="M17.500,35.000 C7.835,35.000 0.000,27.165 0.000,17.500 C0.000,7.835 7.835,-0.000 17.500,-0.000 C27.165,-0.000 35.000,7.835 35.000,17.500 C35.000,27.165 27.165,35.000 17.500,35.000 ZM22.363,13.344 C22.363,13.344 21.638,12.656 21.638,12.656 C21.638,12.656 17.500,17.253 17.500,17.253 C17.500,17.253 13.362,12.656 13.362,12.656 C13.362,12.656 12.637,13.344 12.637,13.344 C12.637,13.344 16.828,18.000 16.828,18.000 C16.828,18.000 12.637,22.656 12.637,22.656 C12.637,22.656 13.362,23.344 13.362,23.344 C13.362,23.344 17.500,18.747 17.500,18.747 C17.500,18.747 21.638,23.344 21.638,23.344 C21.638,23.344 22.363,22.656 22.363,22.656 C22.363,22.656 18.172,18.000 18.172,18.000 C18.172,18.000 22.363,13.344 22.363,13.344 ZM16.828,18.000 C16.828,18.000 17.500,17.253 17.500,17.253 C17.500,17.253 18.172,18.000 18.172,18.000 C18.172,18.000 17.500,18.747 17.500,18.747 C17.500,18.747 16.828,18.000 16.828,18.000 Z" id="path-1" class="cls-2" fill-rule="evenodd"/>
</svg>
