<svg xmlns="http://www.w3.org/2000/svg" xmlns:xlink="http://www.w3.org/1999/xlink" preserveAspectRatio="xMidYMid" width="20" height="20" viewBox="0 0 20 20">
  <defs>
    <style>

      .cls-2 {
        fill: #4c505b;
      }
    </style>
  </defs>
  <path d="M4.000,20.000 C4.000,20.000 4.000,15.000 4.000,15.000 C4.000,15.000 0.000,15.000 0.000,15.000 C0.000,15.000 0.000,0.000 0.000,0.000 C0.000,0.000 15.000,0.000 15.000,0.000 C15.000,0.000 15.000,5.000 15.000,5.000 C15.000,5.000 20.000,5.000 20.000,5.000 C20.000,5.000 20.000,20.000 20.000,20.000 C20.000,20.000 4.000,20.000 4.000,20.000 ZM13.000,2.000 C13.000,2.000 2.000,2.000 2.000,2.000 C2.000,2.000 2.000,13.000 2.000,13.000 C2.000,13.000 4.000,13.000 4.000,13.000 C4.000,13.000 4.000,5.000 4.000,5.000 C4.000,5.000 13.000,5.000 13.000,5.000 C13.000,5.000 13.000,2.000 13.000,2.000 ZM18.000,7.000 C18.000,7.000 6.000,7.000 6.000,7.000 C6.000,7.000 6.000,18.000 6.000,18.000 C6.000,18.000 18.000,18.000 18.000,18.000 C18.000,18.000 18.000,7.000 18.000,7.000 Z" id="path-1" class="cls-2" fill-rule="evenodd"/>
</svg>
