<svg xmlns="http://www.w3.org/2000/svg" xmlns:xlink="http://www.w3.org/1999/xlink" preserveAspectRatio="xMidYMid" width="22" height="22" viewBox="0 0 22 22">
  <defs>
    <style>

      .cls-2 {
        fill: #4c505b;
      }
    </style>
  </defs>
  <path d="M11.000,22.000 C4.935,22.000 0.000,17.065 0.000,11.000 C0.000,4.934 4.935,-0.000 11.000,-0.000 C17.065,-0.000 22.000,4.934 22.000,11.000 C22.000,17.065 17.065,22.000 11.000,22.000 ZM11.000,2.000 C6.037,2.000 2.000,6.037 2.000,11.000 C2.000,15.963 6.037,20.000 11.000,20.000 C15.963,20.000 20.000,15.963 20.000,11.000 C20.000,6.037 15.963,2.000 11.000,2.000 ZM10.000,11.577 C10.000,11.577 10.000,4.000 10.000,4.000 C10.000,4.000 12.000,4.000 12.000,4.000 C12.000,4.000 12.000,10.422 12.000,10.422 C12.000,10.422 15.830,12.634 15.830,12.634 C15.830,12.634 14.830,14.366 14.830,14.366 C14.830,14.366 10.000,11.577 10.000,11.577 Z" id="path-1" class="cls-2" fill-rule="evenodd"/>
</svg>
