<svg xmlns="http://www.w3.org/2000/svg" xmlns:xlink="http://www.w3.org/1999/xlink" preserveAspectRatio="xMidYMid" width="16" height="16" viewBox="0 0 16 16">
  <defs>
    <style>

      .cls-2 {
        fill: #4c505b;
      }
    </style>
  </defs>
  <path d="M15.559,14.145 C15.559,14.145 14.145,15.559 14.145,15.559 C14.145,15.559 7.781,9.195 7.781,9.195 C7.781,9.195 1.417,15.559 1.417,15.559 C1.417,15.559 0.003,14.145 0.003,14.145 C0.003,14.145 6.367,7.781 6.367,7.781 C6.367,7.781 0.003,1.417 0.003,1.417 C0.003,1.417 1.417,0.003 1.417,0.003 C1.417,0.003 7.781,6.367 7.781,6.367 C7.781,6.367 14.145,0.003 14.145,0.003 C14.145,0.003 15.559,1.417 15.559,1.417 C15.559,1.417 9.195,7.781 9.195,7.781 C9.195,7.781 15.559,14.145 15.559,14.145 Z" id="path-1" class="cls-2" fill-rule="evenodd"/>
</svg>
