<svg xmlns="http://www.w3.org/2000/svg" xmlns:xlink="http://www.w3.org/1999/xlink" preserveAspectRatio="xMidYMid" width="20" height="15" viewBox="0 0 20 15">
  <defs>
    <style>

      .cls-2 {
        fill: #7c8387;
      }
    </style>
  </defs>
  <path d="M19.731,8.082 C16.538,11.590 13.296,13.344 10.007,13.344 C9.065,13.344 8.117,13.183 7.164,12.887 C7.164,12.887 8.697,11.354 8.697,11.354 C9.109,11.470 9.539,11.547 10.007,11.547 C11.207,11.547 12.230,11.140 13.074,10.328 C13.919,9.515 14.341,8.531 14.341,7.376 C14.341,6.865 14.248,6.397 14.094,5.956 C14.094,5.956 16.424,3.627 16.424,3.627 C17.532,4.418 18.634,5.401 19.731,6.605 C20.086,7.119 20.086,7.611 19.731,8.082 ZM10.855,9.196 C10.855,9.196 11.929,8.122 11.929,8.122 C11.829,8.366 11.680,8.589 11.474,8.787 C11.288,8.967 11.080,9.100 10.855,9.196 ZM2.646,13.990 C2.646,13.990 16.646,-0.010 16.646,-0.010 C16.646,-0.010 17.354,0.697 17.354,0.697 C17.354,0.697 3.354,14.697 3.354,14.697 C3.354,14.697 2.646,13.990 2.646,13.990 ZM8.032,6.605 C8.132,6.354 8.281,6.118 8.485,5.900 C8.690,5.719 8.912,5.584 9.148,5.488 C9.148,5.488 8.032,6.605 8.032,6.605 ZM10.007,3.140 C8.770,3.140 7.729,3.546 6.884,4.359 C6.040,5.172 5.617,6.178 5.617,7.376 C5.617,7.874 5.712,8.333 5.869,8.768 C5.869,8.768 3.574,11.063 3.574,11.063 C2.292,10.153 1.181,9.167 0.294,8.082 C-0.106,7.696 -0.106,7.226 0.294,6.670 C3.532,3.119 6.770,1.343 10.007,1.343 C10.955,1.343 11.899,1.506 12.839,1.798 C12.839,1.798 11.299,3.338 11.299,3.338 C10.892,3.219 10.467,3.140 10.007,3.140 Z" id="path-1" class="cls-2" fill-rule="evenodd"/>
</svg>
