<svg xmlns="http://www.w3.org/2000/svg" xmlns:xlink="http://www.w3.org/1999/xlink" preserveAspectRatio="xMidYMid" width="20" height="18" viewBox="0 0 20 18">
  <defs>
    <style>

      .cls-2 {
        fill: #fff;
      }
    </style>
  </defs>
  <path d="M19.849,3.238 C19.849,3.238 18.396,4.709 18.396,4.709 C18.229,4.878 17.954,4.878 17.787,4.709 C17.787,4.709 15.291,2.184 15.291,2.184 C15.124,2.015 15.124,1.737 15.291,1.568 C15.291,1.568 16.744,0.097 16.744,0.097 C16.912,-0.072 17.186,-0.072 17.354,0.097 C17.354,0.097 19.849,2.622 19.849,2.622 C20.017,2.792 20.017,3.069 19.849,3.238 ZM7.235,16.000 C7.235,16.000 4.000,16.000 4.000,16.000 C4.000,16.000 4.000,12.991 4.000,12.991 C4.000,12.991 14.118,2.755 14.118,2.755 C14.118,2.755 17.222,5.896 17.222,5.896 C17.222,5.896 7.235,16.000 7.235,16.000 ZM7.000,18.000 C7.000,18.000 0.000,18.000 0.000,18.000 C0.000,18.000 0.000,17.000 0.000,17.000 C0.000,17.000 7.000,17.000 7.000,17.000 C7.000,17.000 7.000,18.000 7.000,18.000 Z" id="path-1" class="cls-2" fill-rule="evenodd"/>
</svg>
