<svg xmlns="http://www.w3.org/2000/svg" xmlns:xlink="http://www.w3.org/1999/xlink" preserveAspectRatio="xMidYMid" width="20" height="20" viewBox="0 0 20 20">
  <defs>
    <style>

      .cls-2 {
        fill: #4c505b;
      }
    </style>
  </defs>
  <path d="M19.864,18.887 C19.864,18.887 14.607,13.631 14.607,13.631 C15.829,12.188 16.567,10.323 16.567,8.283 C16.567,3.709 12.858,0.000 8.283,0.000 C3.708,0.000 -0.000,3.709 -0.000,8.283 C-0.000,12.858 3.708,16.567 8.283,16.567 C10.322,16.567 12.188,15.829 13.631,14.607 C13.631,14.607 18.887,19.864 18.887,19.864 C19.066,20.043 19.359,20.043 19.538,19.864 C19.538,19.864 19.864,19.538 19.864,19.538 C20.043,19.359 20.043,19.067 19.864,18.887 ZM1.380,8.283 C1.380,4.477 4.477,1.380 8.283,1.380 C12.090,1.380 15.186,4.477 15.186,8.283 C15.186,12.090 12.090,15.186 8.283,15.186 C4.477,15.186 1.380,12.090 1.380,8.283 Z" id="path-1" class="cls-2" fill-rule="evenodd"/>
</svg>
