<svg xmlns="http://www.w3.org/2000/svg" xmlns:xlink="http://www.w3.org/1999/xlink" preserveAspectRatio="xMidYMid" width="10" height="6" viewBox="0 0 10 6">
  <defs>
    <style>

      .cls-2 {
        fill: #4c505b;
      }
    </style>
  </defs>
  <path d="M4.643,0.000 C4.643,0.000 -0.000,4.587 -0.000,4.587 C-0.000,4.587 -0.000,5.355 -0.000,5.355 C-0.000,5.355 0.645,6.000 0.645,6.000 C0.645,6.000 1.414,6.000 1.414,6.000 C1.414,6.000 5.000,2.414 5.000,2.414 C5.000,2.414 8.586,6.000 8.586,6.000 C8.586,6.000 9.356,6.000 9.356,6.000 C9.356,6.000 10.000,5.355 10.000,5.355 C10.000,5.355 10.000,4.587 10.000,4.587 C10.000,4.587 5.357,0.000 5.357,0.000 C5.357,0.000 4.643,0.000 4.643,0.000 Z" id="path-1" class="cls-2" fill-rule="evenodd"/>
</svg>
