<svg xmlns="http://www.w3.org/2000/svg" xmlns:xlink="http://www.w3.org/1999/xlink" preserveAspectRatio="xMidYMid" width="22" height="15" viewBox="0 0 22 15">
  <defs>
    <style>

      .cls-2 {
        fill: #ffffff;
      }
    </style>
  </defs>
  <path d="M0.000,3.352 C0.000,2.684 0.558,2.143 1.234,2.143 C1.234,2.143 5.087,2.143 5.087,2.143 C5.315,2.143 5.640,2.022 5.808,1.876 C5.808,1.876 7.667,0.267 7.667,0.267 C7.837,0.120 8.163,-0.000 8.391,-0.000 C8.391,-0.000 13.609,-0.000 13.609,-0.000 C13.839,-0.000 14.165,0.121 14.333,0.267 C14.333,0.267 16.192,1.876 16.192,1.876 C16.362,2.023 16.683,2.143 16.913,2.143 C16.913,2.143 20.766,2.143 20.766,2.143 C21.447,2.143 22.000,2.679 22.000,3.352 C22.000,3.352 22.000,13.790 22.000,13.790 C22.000,14.458 21.445,15.000 20.762,15.000 C20.762,15.000 1.238,15.000 1.238,15.000 C0.554,15.000 0.000,14.464 0.000,13.790 C0.000,13.790 0.000,3.352 0.000,3.352 ZM15.461,2.677 C15.461,2.677 13.603,1.068 13.603,1.068 C13.608,1.071 8.391,1.071 8.391,1.071 C8.395,1.070 6.539,2.677 6.539,2.677 C6.169,2.997 5.584,3.214 5.087,3.214 C5.087,3.214 1.234,3.214 1.234,3.214 C1.164,3.214 1.100,3.277 1.100,3.352 C1.100,3.352 1.100,13.790 1.100,13.790 C1.100,13.870 1.160,13.929 1.238,13.929 C1.238,13.929 20.762,13.929 20.762,13.929 C20.837,13.929 20.900,13.867 20.900,13.790 C20.900,13.790 20.900,3.352 20.900,3.352 C20.900,3.272 20.841,3.214 20.766,3.214 C20.766,3.214 16.913,3.214 16.913,3.214 C16.414,3.214 15.833,2.999 15.461,2.677 ZM11.000,12.857 C13.734,12.857 15.950,10.699 15.950,8.036 C15.950,5.373 13.734,3.214 11.000,3.214 C8.266,3.214 6.050,5.373 6.050,8.036 C6.050,10.699 8.266,12.857 11.000,12.857 ZM11.000,11.786 C8.874,11.786 7.150,10.107 7.150,8.036 C7.150,5.965 8.874,4.286 11.000,4.286 C13.126,4.286 14.850,5.965 14.850,8.036 C14.850,10.107 13.126,11.786 11.000,11.786 ZM17.600,5.423 C17.600,5.347 17.663,5.286 17.741,5.286 C17.741,5.286 19.109,5.286 19.109,5.286 C19.187,5.286 19.250,5.347 19.250,5.423 C19.250,5.423 19.250,5.756 19.250,5.756 C19.250,5.832 19.187,5.893 19.109,5.893 C19.109,5.893 17.741,5.893 17.741,5.893 C17.663,5.893 17.600,5.832 17.600,5.756 C17.600,5.756 17.600,5.423 17.600,5.423 Z" id="path-1" class="cls-2" fill-rule="evenodd"/>
</svg>
