<svg xmlns="http://www.w3.org/2000/svg" width="20" height="20" viewBox="0 0 20 20">
  <metadata><?xpacket begin="﻿" id="W5M0MpCehiHzreSzNTczkc9d"?>
<x:xmpmeta xmlns:x="adobe:ns:meta/" x:xmptk="Adobe XMP Core 5.6-c140 79.160451, 2017/05/06-01:08:21        ">
   <rdf:RDF xmlns:rdf="http://www.w3.org/1999/02/22-rdf-syntax-ns#">
      <rdf:Description rdf:about=""/>
   </rdf:RDF>
</x:xmpmeta>
                                                                                                    
                                                                                                    
                                                                                                    
                                                                                                    
                                                                                                    
                                                                                                    
                                                                                                    
                                                                                                    
                                                                                                    
                                                                                                    
                                                                                                    
                                                                                                    
                                                                                                    
                                                                                                    
                                                                                                    
                                                                                                    
                                                                                                    
                                                                                                    
                                                                                                    
                                                                                                    
                           
<?xpacket end="w"?></metadata>
<defs>
    <style>
      .cls-1 {
        fill: #4c505b;
        fill-rule: evenodd;
      }
    </style>
  </defs>
  <path id="Forma_1242" data-name="Forma 1242" class="cls-1" d="M11.044,1A10.108,10.108,0,0,1,14.8,20.429c-2.009.795-7.336,1.413-9.345-2.826,4.978,1.855,10.917-.795,10.917-6.447a5.323,5.323,0,0,0-5.328-5.387A4.733,4.733,0,0,0,6.852,7.977,14.269,14.269,0,0,1,8.86,7.535c-2.882,3.091-3.319,3.621-6.725,7.242C1.524,9.831,1.524,9.036,1,4.8c0.175,0.177.873,1.06,1.572,1.855A8.69,8.69,0,0,1,3.969,4,9.842,9.842,0,0,1,11.044,1Z" transform="translate(-1 -1)"/>
</svg>
