<svg xmlns="http://www.w3.org/2000/svg" xmlns:xlink="http://www.w3.org/1999/xlink" preserveAspectRatio="xMidYMid" width="20" height="12" viewBox="0 0 20 12">
  <defs>
    <style>

      .cls-2 {
        fill: #7c8387;
      }
    </style>
  </defs>
  <path d="M19.731,6.738 C20.086,6.267 20.086,5.775 19.731,5.262 C16.538,1.753 13.296,-0.001 10.007,-0.001 C6.770,-0.001 3.532,1.775 0.294,5.326 C-0.106,5.882 -0.106,6.353 0.294,6.738 C1.272,7.936 2.491,9.027 3.951,10.011 C5.995,11.337 8.014,12.000 10.007,12.000 C13.296,12.000 16.538,10.246 19.731,6.738 M10.007,1.796 C11.207,1.796 12.230,2.203 13.074,3.016 C13.919,3.828 14.341,4.834 14.341,6.032 C14.341,7.187 13.919,8.171 13.074,8.984 C12.230,9.797 11.207,10.203 10.007,10.203 C8.770,10.203 7.729,9.797 6.884,8.984 C6.040,8.171 5.617,7.187 5.617,6.032 C5.617,4.834 6.040,3.828 6.884,3.016 C7.729,2.203 8.770,1.796 10.007,1.796 M11.474,4.556 C11.074,4.171 10.585,3.978 10.007,3.978 C9.429,3.978 8.922,4.171 8.485,4.556 C8.085,4.984 7.885,5.476 7.885,6.032 C7.885,6.588 8.085,7.059 8.485,7.444 C8.922,7.829 9.429,8.021 10.007,8.021 C10.585,8.021 11.074,7.829 11.474,7.444 C11.874,7.059 12.074,6.588 12.074,6.032 C12.074,5.476 11.874,4.984 11.474,4.556 Z" id="path-1" class="cls-2" fill-rule="evenodd"/>
</svg>
