<svg xmlns="http://www.w3.org/2000/svg" xmlns:xlink="http://www.w3.org/1999/xlink" preserveAspectRatio="xMidYMid" width="11" height="20" viewBox="0 0 11 20">
  <defs>
    <style>

      .cls-2 {
        fill: #4c505b;
      }
    </style>
  </defs>
  <path d="M0.000,10.357 C0.000,10.357 9.587,20.000 9.587,20.000 C9.587,20.000 10.355,20.000 10.355,20.000 C10.355,20.000 11.000,19.355 11.000,19.355 C11.000,19.355 11.000,18.586 11.000,18.586 C11.000,18.586 2.414,10.000 2.414,10.000 C2.414,10.000 11.000,1.414 11.000,1.414 C11.000,1.414 11.000,0.644 11.000,0.644 C11.000,0.644 10.355,-0.000 10.355,-0.000 C10.355,-0.000 9.587,-0.000 9.587,-0.000 C9.587,-0.000 0.000,9.643 0.000,9.643 C0.000,9.643 0.000,10.357 0.000,10.357 Z" id="path-1" class="cls-2" fill-rule="evenodd"/>
</svg>
