<svg xmlns="http://www.w3.org/2000/svg" xmlns:xlink="http://www.w3.org/1999/xlink" preserveAspectRatio="xMidYMid" width="10" height="6" viewBox="0 0 10 6">
  <defs>
    <style>

      .cls-2 {
        fill: #4c505b;
      }
    </style>
  </defs>
  <path d="M4.643,6.000 C4.643,6.000 -0.000,1.413 -0.000,1.413 C-0.000,1.413 -0.000,0.645 -0.000,0.645 C-0.000,0.645 0.645,-0.000 0.645,-0.000 C0.645,-0.000 1.414,-0.000 1.414,-0.000 C1.414,-0.000 5.000,3.586 5.000,3.586 C5.000,3.586 8.586,-0.000 8.586,-0.000 C8.586,-0.000 9.356,-0.000 9.356,-0.000 C9.356,-0.000 10.000,0.645 10.000,0.645 C10.000,0.645 10.000,1.413 10.000,1.413 C10.000,1.413 5.357,6.000 5.357,6.000 C5.357,6.000 4.643,6.000 4.643,6.000 Z" id="path-1" class="cls-2" fill-rule="evenodd"/>
</svg>
