<svg 
 xmlns="http://www.w3.org/2000/svg"
 xmlns:xlink="http://www.w3.org/1999/xlink"
 width="0.278in" height="0.278in">
<path fill-rule="evenodd"  fill="rgb(73, 79, 91)"
 d="M-0.001,19.997 L-0.001,1.738 L6.193,1.738 L6.193,0.000 L7.061,0.000 L7.061,1.738 L9.695,1.738 L9.695,0.000 L10.564,0.000 L10.564,1.738 L13.024,1.738 L13.024,0.000 L13.892,0.000 L13.892,1.738 L20.000,1.738 L20.000,19.997 L-0.001,19.997 ZM0.867,19.082 L19.131,19.082 L19.131,17.040 L0.867,17.040 L0.867,19.082 ZM19.160,2.622 L13.921,2.622 L13.921,4.359 L13.053,4.359 L13.053,2.622 L10.593,2.622 L10.593,4.359 L9.724,4.359 L9.724,2.622 L7.061,2.622 L7.061,4.359 L6.193,4.359 L6.193,2.652 L0.867,2.652 L0.867,16.095 L19.160,16.095 L19.160,2.622 ZM6.627,9.450 L4.977,9.450 L4.977,7.712 L6.627,7.712 L6.627,9.450 ZM6.627,13.900 L4.977,13.900 L4.977,12.163 L6.627,12.163 L6.627,13.900 ZM10.824,9.450 L9.174,9.450 L9.174,7.712 L10.824,7.712 L10.824,9.450 ZM10.824,13.900 L9.174,13.900 L9.174,12.163 L10.824,12.163 L10.824,13.900 ZM15.050,9.450 L13.400,9.450 L13.400,7.712 L15.050,7.712 L15.050,9.450 ZM15.050,13.900 L13.400,13.900 L13.400,12.163 L15.050,12.163 L15.050,13.900 Z"/>
</svg>
