<svg 
 xmlns="http://www.w3.org/2000/svg"
 xmlns:xlink="http://www.w3.org/1999/xlink"
 width="0.236in" height="0.236in">
<path fill-rule="evenodd"  fill="rgb(73, 79, 91)"
 d="M16.000,10.000 L10.000,10.000 L10.000,16.000 C10.000,16.552 9.552,17.000 9.000,17.000 L8.000,17.000 C7.448,17.000 7.000,16.552 7.000,16.000 L7.000,10.000 L1.000,10.000 C0.448,10.000 -0.000,9.552 -0.000,9.000 L-0.000,8.000 C-0.000,7.448 0.448,7.000 1.000,7.000 L7.000,7.000 L7.000,1.000 C7.000,0.448 7.448,-0.000 8.000,-0.000 L9.000,-0.000 C9.552,-0.000 10.000,0.448 10.000,1.000 L10.000,7.000 L16.000,7.000 C16.552,7.000 17.000,7.448 17.000,8.000 L17.000,9.000 C17.000,9.552 16.552,10.000 16.000,10.000 Z"/>
</svg>
