<svg xmlns="http://www.w3.org/2000/svg" xmlns:xlink="http://www.w3.org/1999/xlink" preserveAspectRatio="xMidYMid" width="21" height="40" viewBox="0 0 21 40">
  <defs>
    <style>

      .cls-2 {
        fill: #ffffff;
      }
    </style>
  </defs>
  <path d="M21.000,20.357 C21.000,20.357 1.413,40.000 1.413,40.000 C1.413,40.000 0.645,40.000 0.645,40.000 C0.645,40.000 0.000,39.355 0.000,39.355 C0.000,39.355 0.000,38.586 0.000,38.586 C0.000,38.586 18.586,20.000 18.586,20.000 C18.586,20.000 0.000,1.414 0.000,1.414 C0.000,1.414 0.000,0.644 0.000,0.644 C0.000,0.644 0.645,0.000 0.645,0.000 C0.645,0.000 1.413,0.000 1.413,0.000 C1.413,0.000 21.000,19.643 21.000,19.643 C21.000,19.643 21.000,20.357 21.000,20.357 Z" id="path-1" class="cls-2" fill-rule="evenodd"/>
</svg>
