<svg xmlns="http://www.w3.org/2000/svg" xmlns:xlink="http://www.w3.org/1999/xlink" preserveAspectRatio="xMidYMid" width="21" height="40" viewBox="0 0 21 40">
  <defs>
    <style>

      .cls-2 {
        fill: #ffffff;
      }
    </style>
  </defs>
  <path d="M-0.000,20.357 C-0.000,20.357 19.587,40.000 19.587,40.000 C19.587,40.000 20.355,40.000 20.355,40.000 C20.355,40.000 21.000,39.355 21.000,39.355 C21.000,39.355 21.000,38.586 21.000,38.586 C21.000,38.586 2.414,20.000 2.414,20.000 C2.414,20.000 21.000,1.414 21.000,1.414 C21.000,1.414 21.000,0.644 21.000,0.644 C21.000,0.644 20.355,0.000 20.355,0.000 C20.355,0.000 19.587,0.000 19.587,0.000 C19.587,0.000 -0.000,19.643 -0.000,19.643 C-0.000,19.643 -0.000,20.357 -0.000,20.357 Z" id="path-1" class="cls-2" fill-rule="evenodd"/>
</svg>
